<?xml version="1.0" encoding="UTF-8" standalone="no"?>
<svg
   xmlns:dc="http://purl.org/dc/elements/1.1/"
   xmlns:cc="http://creativecommons.org/ns#"
   xmlns:rdf="http://www.w3.org/1999/02/22-rdf-syntax-ns#"
   xmlns:svg="http://www.w3.org/2000/svg"
   xmlns="http://www.w3.org/2000/svg"
   viewBox="0 0 191.52 144"
   height="144"
   width="191.52"
   version="1.1"
   id="svg2">
  <metadata
     id="metadata8">
    <rdf:RDF>
      <cc:Work
         rdf:about="">
        <dc:format>image/svg+xml</dc:format>
        <dc:type
           rdf:resource="http://purl.org/dc/dcmitype/StillImage" />
        <dc:title></dc:title>
      </cc:Work>
    </rdf:RDF>
  </metadata>
  <defs
     id="defs6" />
  <g
     id="g4406">
    <path
       style="fill:#000000;stroke:none"
       d="m 0,72 0,-72 95.76,0 95.76,0 0,72 0,72 -95.76,0 L 0,144 0,72 Z m 97.45557,57.59669 c 0.43714,-0.1214 0.43227,-0.092 0.45201,-2.7288 l 0.0176,-2.3476 0.31762,-0.10012 c 0.73152,-0.23059 1.42415,-0.95209 1.6727,-1.74241 0.13209,-0.42001 0.13453,-0.48372 0.13453,-3.51776 0,-3.03404 -0.002,-3.09775 -0.13453,-3.51776 -0.24892,-0.79147 -0.94118,-1.51182 -1.67527,-1.74322 l -0.3202,-0.10093 0,-2.37473 0,-2.37472 0.9911,-0.98932 c 0.72782,-0.72652 1.00665,-1.0451 1.04966,-1.19932 0.0371,-0.13306 0.0587,-4.24931 0.0589,-11.235 l 3.4e-4,-11.025 0.18,0 0.18,0 0,-2.61 0,-2.61 -0.93,0 -0.93,0 0,2.61 0,2.61 0.18,0 0.18,0 0,10.93289 0,10.93289 -1.05,1.05589 -1.05,1.0559 0,2.60622 0,2.60621 -0.34513,0.10141 c -0.73536,0.21607 -1.45773,0.94551 -1.69406,1.71064 -0.1144,0.37038 -0.12064,0.55448 -0.12064,3.55795 0,3.00347 0.006,3.18757 0.12064,3.55795 0.23633,0.76513 0.9587,1.49457 1.69406,1.71064 l 0.34513,0.10141 0,1.995 0,1.995 -16.905,-0.002 -16.905,-0.002 -2.85,-2.81514 -2.85,-2.81515 0.825,-0.002 0.825,-0.002 0,-3.21 0,-3.21 -2.85,0 -2.85,0 0,3.21 0,3.21 1.215,0.001 1.215,0.002 3.36,3.32675 c 2.2079,2.18605 3.42173,3.34607 3.54,3.38309 0.26186,0.082 34.61067,0.0858 34.90557,0.004 z m -0.59369,-8.69845 c -0.52924,-0.16347 -1.08165,-0.73885 -1.22773,-1.2788 -0.20867,-0.77123 0.20082,-1.61853 0.98252,-2.03304 0.36122,-0.19153 1.10544,-0.19153 1.46666,0 0.37646,0.19962 0.63211,0.44744 0.82989,0.80447 0.15438,0.2787 0.17678,0.37995 0.17678,0.79913 0,0.41918 -0.0224,0.52043 -0.17678,0.79913 -0.32523,0.5871 -0.83751,0.91676 -1.47322,0.94803 -0.2145,0.0105 -0.47465,-0.007 -0.57812,-0.0389 z m -25.68945,4.02283 c 0.79632,-0.24597 1.48493,-0.94257 1.74305,-1.76331 0.13209,-0.42001 0.13452,-0.48372 0.13452,-3.51776 0,-3.03404 -0.002,-3.09775 -0.13452,-3.51776 -0.14956,-0.47554 -0.52578,-1.03487 -0.87461,-1.30029 l -0.22087,-0.16806 0,-18.31212 0,-18.31214 3.67518,-3.67481 3.67518,-3.67482 5.68482,0 5.68482,0 0,0.18 0,0.18 2.67,0 2.67,0 0,-0.93 0,-0.93 -2.67,0 -2.67,0 0,0.18 0,0.18 -5.92449,0 -5.92451,0 -4.00549,4.0055 -4.00551,4.0055 0,18.34451 0,18.34449 -0.41368,0 c -1.1416,0 -2.19445,0.76966 -2.52739,1.84757 -0.11221,0.36331 -0.11893,0.56403 -0.11893,3.55243 0,3.00347 0.006,3.18757 0.12064,3.55795 0.42809,1.386 1.98778,2.16912 3.43179,1.72312 z m -1.31055,-3.54283 c -0.52924,-0.16347 -1.08165,-0.73885 -1.22773,-1.2788 -0.20867,-0.77123 0.20082,-1.61853 0.98252,-2.03304 0.36122,-0.19153 1.10544,-0.19153 1.46666,0 0.37646,0.19962 0.63211,0.44744 0.82989,0.80447 0.15438,0.2787 0.17678,0.37995 0.17678,0.79913 0,0.41918 -0.0224,0.52043 -0.17678,0.79913 -0.32523,0.5871 -0.83751,0.91676 -1.47322,0.94803 -0.2145,0.0106 -0.47465,-0.007 -0.57812,-0.0389 z m 10.31055,3.54283 c 0.79632,-0.24597 1.48493,-0.94257 1.74305,-1.76331 0.13209,-0.42001 0.13452,-0.48372 0.13452,-3.51776 0,-3.02248 -0.003,-3.09923 -0.13284,-3.51223 -0.24932,-0.79237 -0.94295,-1.51737 -1.67142,-1.747 L 79.92,114.27809 79.917,96.36405 79.914,78.45 l 2.47795,-2.44365 2.47794,-2.44365 2.835,-0.001 2.835,-0.001 0,0.18 0,0.18 2.67,0 2.67,0 0,-0.93 0,-0.93 -2.67,0 -2.67,0 0,0.18 0,0.18 -3.06418,0 -3.06418,0 -2.76143,2.715 c -1.51878,1.49325 -2.7859,2.76047 -2.81582,2.81606 -0.0322,0.0598 -0.0544,7.49675 -0.0545,18.21 l 0,18.10894 -0.35064,0.10303 c -0.73165,0.21499 -1.45313,0.94684 -1.69026,1.71454 -0.11221,0.36331 -0.11893,0.56403 -0.11893,3.55243 0,3.00347 0.006,3.18757 0.12064,3.55795 0.42809,1.386 1.98778,2.16912 3.43179,1.72312 z m -1.31055,-3.54283 c -0.52924,-0.16347 -1.08165,-0.73885 -1.22773,-1.2788 -0.20867,-0.77123 0.20082,-1.61853 0.98252,-2.03304 0.36122,-0.19153 1.10544,-0.19153 1.46666,0 0.37646,0.19962 0.63211,0.44744 0.82989,0.80447 0.15438,0.2787 0.17678,0.37995 0.17678,0.79913 0,0.41918 -0.0224,0.52043 -0.17678,0.79913 -0.32523,0.5871 -0.83751,0.91676 -1.47322,0.94803 -0.2145,0.0106 -0.47465,-0.007 -0.57812,-0.0389 z m 10.31055,3.54283 c 0.79632,-0.24597 1.48493,-0.94257 1.74305,-1.76331 0.13209,-0.42001 0.13452,-0.48372 0.13452,-3.51776 0,-3.02248 -0.003,-3.09923 -0.13284,-3.51223 -0.25894,-0.82296 -0.94752,-1.5226 -1.73921,-1.76713 -0.71972,-0.2223 -1.61397,-0.135 -2.22295,0.21702 l -0.255,0.1474 0,-19.04131 0,-19.0413 0.16828,-0.16122 0.16829,-0.16123 1.75171,0 1.75172,0 0,0.18 0,0.18 2.67,0 2.67,0 0,-0.93 0,-0.93 -2.67,0 -2.67,0 0,0.18 0,0.18 -1.99114,0 -1.99114,0 -0.50447,0.50447 -0.50447,0.50447 0.0251,23.30053 0.0251,23.30053 0.13114,0.39927 c 0.46216,1.40704 1.99577,2.17858 3.44229,1.7318 z m -1.31055,-3.54283 c -0.52924,-0.16347 -1.08165,-0.73885 -1.22773,-1.2788 -0.20867,-0.77123 0.20082,-1.61853 0.98252,-2.03304 0.36122,-0.19153 1.10544,-0.19153 1.46666,0 0.37646,0.19962 0.63211,0.44744 0.82989,0.80447 0.15438,0.2787 0.17678,0.37995 0.17678,0.79913 0,0.41918 -0.0224,0.52043 -0.17678,0.79913 -0.32523,0.5871 -0.83751,0.91676 -1.47322,0.94803 -0.2145,0.0106 -0.47465,-0.007 -0.57812,-0.0389 z m 19.31055,3.06283 c 0.79632,-0.24597 1.48492,-0.94257 1.74304,-1.76331 0.13209,-0.42001 0.13453,-0.48372 0.13453,-3.51776 0,-3.02248 -0.003,-3.09923 -0.13285,-3.51223 -0.24931,-0.79237 -0.94294,-1.51737 -1.67141,-1.747 l -0.32574,-0.10268 -6e-4,-1.77405 c 0,-0.97572 -0.0267,-1.86854 -0.059,-1.98404 -0.0452,-0.16162 -0.52198,-0.673 -2.06967,-2.21966 l -2.01071,-2.00967 0,-10.60533 0,-10.60534 0.18,0 0.18,0 0,-2.61 0,-2.61 -0.93,0 -0.93,0 0,2.61 0,2.61 0.18,0 0.18,0 0,10.84302 0,10.84301 2.07,2.07311 2.07,2.07312 0,1.67887 0,1.67887 -0.35064,0.10303 c -0.73166,0.21499 -1.45313,0.94684 -1.69026,1.71454 -0.11221,0.36331 -0.11893,0.56403 -0.11893,3.55243 0,3.00347 0.006,3.18757 0.12064,3.55795 0.42809,1.386 1.98778,2.16912 3.43178,1.72312 z m -1.31055,-3.54283 c -0.52925,-0.16347 -1.08165,-0.73885 -1.22774,-1.2788 -0.20866,-0.77123 0.20082,-1.61853 0.98253,-2.03304 0.36122,-0.19153 1.10544,-0.19153 1.46666,0 0.37646,0.19962 0.63211,0.44744 0.82989,0.80447 0.15438,0.2787 0.17678,0.37995 0.17678,0.79913 0,0.41918 -0.0224,0.52043 -0.17678,0.79913 -0.32523,0.5871 -0.83751,0.91676 -1.47322,0.94803 -0.2145,0.0105 -0.47465,-0.007 -0.57812,-0.0389 z m 10.31055,3.54283 c 0.79632,-0.24597 1.48492,-0.94257 1.74304,-1.76331 0.13209,-0.42001 0.13453,-0.48372 0.13453,-3.51776 0,-3.02248 -0.003,-3.09923 -0.13285,-3.51223 -0.25893,-0.82296 -0.94751,-1.5226 -1.7392,-1.76713 -0.42798,-0.13219 -1.1658,-0.16163 -1.51814,-0.0606 l -0.2094,0.0601 -4.39521,-4.3949 -4.3952,-4.3949 0,-10.24515 0,-10.24516 0.18,0 0.18,0 0,-2.61 0,-2.61 -0.93,0 -0.93,0 0,2.61 0,2.61 0.18,0 0.18,0 0,10.48405 0,10.48406 4.44606,4.44755 4.44605,4.44755 -0.27541,0.37412 c -0.51787,0.70348 -0.5167,0.69371 -0.5167,4.32267 0,3.00347 0.006,3.18757 0.12064,3.55795 0.42809,1.386 1.98778,2.16912 3.43179,1.72312 z m -1.31055,-3.54283 c -0.52925,-0.16347 -1.08165,-0.73885 -1.22774,-1.2788 -0.20866,-0.77123 0.20082,-1.61853 0.98253,-2.03304 0.36122,-0.19153 1.10544,-0.19153 1.46666,0 0.37646,0.19962 0.63211,0.44744 0.82989,0.80447 0.15438,0.2787 0.17678,0.37995 0.17678,0.79913 0,0.41918 -0.0224,0.52043 -0.17678,0.79913 -0.32523,0.5871 -0.83751,0.91676 -1.47322,0.94803 -0.2145,0.0105 -0.47465,-0.007 -0.57812,-0.0389 z m 10.31055,3.54283 c 0.79632,-0.24597 1.48492,-0.94257 1.74304,-1.76331 0.13209,-0.42001 0.13453,-0.48372 0.13453,-3.51776 0,-3.02248 -0.003,-3.09923 -0.13285,-3.51223 -0.25893,-0.82296 -0.94751,-1.5226 -1.7392,-1.76713 -0.78096,-0.24122 -1.78286,-0.11034 -2.36091,0.3084 l -0.26274,0.19033 -7.03475,-7.07469 -7.03474,-7.07468 -0.002,-7.815 -0.002,-7.815 0.18,0 0.18,0 0,-2.61 0,-2.61 -0.93,0 -0.93,0 0,2.61 0,2.61 0.18,0 0.18,0 0,8.04458 0,8.04457 7.25131,7.29315 7.2513,7.29315 -0.1113,0.35762 c -0.10249,0.32928 -0.11131,0.60866 -0.11131,3.52596 0,3.00444 0.006,3.18854 0.12064,3.55892 0.42809,1.386 1.98778,2.16912 3.43179,1.72312 z m -1.31055,-3.54283 c -0.52925,-0.16347 -1.08165,-0.73885 -1.22774,-1.2788 -0.20866,-0.77123 0.20082,-1.61853 0.98253,-2.03304 0.36122,-0.19153 1.10544,-0.19153 1.46666,0 0.37646,0.19962 0.63211,0.44744 0.82989,0.80447 0.15438,0.2787 0.17678,0.37995 0.17678,0.79913 0,0.41918 -0.0224,0.52043 -0.17678,0.79913 -0.32523,0.5871 -0.83751,0.91676 -1.47322,0.94803 -0.2145,0.0105 -0.47465,-0.007 -0.57812,-0.0389 z m 10.31055,3.54283 c 0.79632,-0.24597 1.48492,-0.94257 1.74304,-1.76331 0.13209,-0.42001 0.13453,-0.48372 0.13453,-3.51776 0,-3.02248 -0.003,-3.09923 -0.13285,-3.51223 -0.55642,-1.76847 -2.72366,-2.47248 -4.22009,-1.37087 l -0.37441,0.27562 -9.98132,-9.98119 -9.98133,-9.98119 0,-4.99507 0,-4.99507 0.18,0 0.18,0 0,-2.61 0,-2.61 -0.93,0 -0.93,0 0,2.61 0,2.61 0.18,0 0.18,0 0,5.23459 0,5.23458 10.26004,10.26069 10.26003,10.26069 -0.06,0.20933 c -0.0366,0.12774 -0.06,1.44059 -0.06,3.36841 0,2.99516 0.006,3.17934 0.12064,3.54966 0.42809,1.386 1.98778,2.16912 3.43179,1.72312 z m -1.31055,-3.54283 c -0.52925,-0.16347 -1.08165,-0.73885 -1.22774,-1.2788 -0.20866,-0.77123 0.20082,-1.61853 0.98253,-2.03304 0.36122,-0.19153 1.10544,-0.19153 1.46666,0 0.37646,0.19962 0.63211,0.44744 0.82989,0.80447 0.15438,0.2787 0.17678,0.37995 0.17678,0.79913 0,0.41918 -0.0224,0.52043 -0.17678,0.79913 -0.32523,0.5871 -0.83751,0.91676 -1.47322,0.94803 -0.2145,0.0105 -0.47465,-0.007 -0.57812,-0.0389 z m 10.31055,3.54283 c 0.79632,-0.24597 1.48492,-0.94257 1.74304,-1.76331 0.13209,-0.42001 0.13453,-0.48372 0.13453,-3.51776 0,-3.02248 -0.003,-3.09923 -0.13285,-3.51223 -0.24931,-0.79237 -0.94294,-1.51737 -1.67141,-1.747 l -0.32574,-0.10268 -6e-4,-1.32405 c 0,-0.72822 -0.0268,-1.41916 -0.059,-1.53541 -0.0436,-0.15688 -0.31906,-0.47008 -1.06867,-1.215 l -1.00967,-1.00363 -4.2559,0 -4.25589,0 -6.22511,-6.22489 -6.22511,-6.22489 0,-5.83511 0,-5.83511 0.18,0 0.18,0 0,-2.61 0,-2.61 -0.93,0 -0.93,0 0,2.61 0,2.61 0.18,0 0.18,0 0,6.07435 0,6.07435 6.495,6.49664 c 5.15612,5.15743 6.53829,6.50874 6.705,6.55531 0.12742,0.0356 1.82587,0.0588 4.31914,0.059 l 4.10913,6e-4 0.73587,0.7341 0.73586,0.7341 0,1.2309 0,1.2309 -0.35064,0.10304 c -0.73166,0.21499 -1.45313,0.94683 -1.69026,1.71454 -0.11221,0.3633 -0.11893,0.56403 -0.11893,3.55242 0,3.00347 0.006,3.18758 0.12064,3.55796 0.42809,1.38599 1.98778,2.16912 3.43178,1.72311 z m -1.31055,-3.54283 c -0.52925,-0.16347 -1.08165,-0.73885 -1.22774,-1.2788 -0.20866,-0.77123 0.20082,-1.61853 0.98253,-2.03304 0.36122,-0.19153 1.10544,-0.19153 1.46666,0 0.37646,0.19962 0.63211,0.44744 0.82989,0.80447 0.15438,0.2787 0.17678,0.37995 0.17678,0.79913 0,0.41918 -0.0224,0.52043 -0.17678,0.79913 -0.32523,0.5871 -0.83751,0.91676 -1.47322,0.94803 -0.2145,0.0105 -0.47465,-0.007 -0.57812,-0.0389 z m 10.31055,3.54283 c 0.79632,-0.24597 1.48492,-0.94257 1.74304,-1.76331 0.13209,-0.42001 0.13453,-0.48372 0.13453,-3.51776 0,-3.02248 -0.003,-3.09923 -0.13285,-3.51223 -0.24931,-0.79237 -0.94294,-1.51737 -1.67141,-1.747 l -0.32574,-0.10268 -6e-4,-1.77405 c 0,-0.97572 -0.0266,-1.86854 -0.0588,-1.98404 -0.0454,-0.16297 -0.58659,-0.73748 -2.41643,-2.565 l -2.35799,-2.355 -7.1981,0 -7.1981,0 -5.05513,-5.05487 -5.05513,-5.05486 0,-5.20514 0,-5.20513 0.18,0 0.18,0 0,-2.61 0,-2.61 -0.93,0 -0.93,0 0,2.61 0,2.61 0.18,0 0.18,0 0,5.44421 0,5.44421 5.325,5.32681 c 4.2153,4.21673 5.36876,5.33903 5.535,5.38545 0.13127,0.0367 2.85275,0.0588 7.25968,0.059 l 7.04968,6e-4 2.08532,2.08468 2.08532,2.08468 0,1.68032 0,1.68032 -0.35064,0.10304 c -0.73166,0.21499 -1.45314,0.94683 -1.69026,1.71454 -0.11222,0.3633 -0.11894,0.56403 -0.11894,3.55242 0,3.00347 0.006,3.18758 0.12065,3.55796 0.42808,1.38599 1.98777,2.16912 3.43178,1.72311 z m -1.31055,-3.54283 c -0.52925,-0.16347 -1.08165,-0.73885 -1.22774,-1.2788 -0.20866,-0.77123 0.20082,-1.61853 0.98253,-2.03304 0.36122,-0.19153 1.10544,-0.19153 1.46666,0 0.37646,0.19962 0.63211,0.44744 0.82989,0.80447 0.15438,0.2787 0.17678,0.37995 0.17678,0.79913 0,0.41918 -0.0224,0.52043 -0.17678,0.79913 -0.32523,0.5871 -0.83751,0.91676 -1.47322,0.94803 -0.2145,0.0105 -0.47465,-0.007 -0.57812,-0.0389 z m 10.31055,3.54283 c 0.79632,-0.24597 1.48492,-0.94257 1.74304,-1.76331 0.13209,-0.42001 0.13453,-0.48372 0.13453,-3.51776 0,-3.02248 -0.003,-3.09923 -0.13285,-3.51223 -0.24931,-0.79237 -0.94294,-1.51737 -1.67141,-1.747 l -0.32574,-0.10268 -6e-4,-1.77405 c 0,-0.97572 -0.0267,-1.86854 -0.0589,-1.98404 -0.0461,-0.1651 -0.85132,-1.00227 -3.7658,-3.915 l -3.70722,-3.705 -9.89871,0 -9.89869,0 -4.06517,-4.06483 -4.06516,-4.06484 0,-4.84516 0,-4.84517 0.18,0 0.18,0 0,-2.61 0,-2.61 -0.93,0 -0.93,0 0,2.61 0,2.61 0.18,0 0.18,0 0,5.08403 0,5.08403 4.335,4.33703 c 3.41926,3.42086 4.37935,4.3494 4.545,4.39563 0.1327,0.037 3.79855,0.0587 9.9598,0.0589 l 9.74981,6e-4 3.43519,3.43481 3.4352,3.4348 0,1.6802 0,1.68019 -0.35064,0.10304 c -0.73166,0.21499 -1.45314,0.94683 -1.69026,1.71454 -0.11222,0.3633 -0.11894,0.56403 -0.11894,3.55242 0,3.00347 0.006,3.18758 0.12065,3.55796 0.42808,1.38599 1.98777,2.16912 3.43178,1.72311 z m -1.31055,-3.54283 c -0.52925,-0.16347 -1.08165,-0.73885 -1.22774,-1.2788 -0.20866,-0.77123 0.20082,-1.61853 0.98253,-2.03304 0.36122,-0.19153 1.10544,-0.19153 1.46666,0 0.37646,0.19962 0.63211,0.44744 0.82989,0.80447 0.15438,0.2787 0.17678,0.37995 0.17678,0.79913 0,0.41918 -0.0224,0.52043 -0.17678,0.79913 -0.32523,0.5871 -0.83751,0.91676 -1.47322,0.94803 -0.2145,0.0105 -0.47465,-0.007 -0.57812,-0.0389 z m 10.31055,3.54283 c 0.79632,-0.24597 1.48492,-0.94257 1.74304,-1.76331 0.13209,-0.42001 0.13453,-0.48372 0.13453,-3.51776 0,-3.02248 -0.003,-3.09923 -0.13285,-3.51223 -0.24931,-0.79237 -0.94294,-1.51737 -1.67141,-1.747 l -0.32574,-0.10268 -6e-4,-1.53405 c 0,-0.87489 -0.0269,-1.62427 -0.0621,-1.74404 -0.048,-0.16306 -1.23804,-1.39379 -5.32466,-5.50652 l -5.2629,-5.29653 -12.14981,0.001 -12.1498,0.002 -3.3452,-3.3448 -3.34519,-3.3448 0,-4.2152 0,-4.2152 0.18,0 0.18,0 0,-2.61 0,-2.61 -0.93,0 -0.93,0 0,2.61 0,2.61 0.18,0 0.18,0 0,4.45383 0,4.45385 3.615,3.61725 c 2.84037,2.84215 3.66,3.62981 3.825,3.67583 0.13351,0.0372 4.58041,0.0576 12.21,0.056 l 12,-0.003 4.99328,5.02792 4.99329,5.02792 0.002,1.44 0.002,1.44 -0.35064,0.10303 c -0.73166,0.21499 -1.45313,0.94683 -1.69026,1.71454 -0.11221,0.36331 -0.11893,0.56403 -0.11893,3.55243 0,3.00346 0.006,3.18757 0.12064,3.55795 0.42809,1.38599 1.98778,2.16912 3.43178,1.72311 z m -1.31055,-3.54283 c -0.52925,-0.16347 -1.08165,-0.73885 -1.22774,-1.2788 -0.20866,-0.77123 0.20082,-1.61853 0.98253,-2.03304 0.36122,-0.19153 1.10544,-0.19153 1.46666,0 0.37646,0.19962 0.63211,0.44744 0.82989,0.80447 0.15438,0.2787 0.17678,0.37995 0.17678,0.79913 0,0.41918 -0.0224,0.52043 -0.17678,0.79913 -0.32523,0.5871 -0.83751,0.91676 -1.47322,0.94803 -0.2145,0.0105 -0.47465,-0.007 -0.57812,-0.0389 z M 23.16,119.67 l 0,-3.21 -1.14,0 -1.14,0 0,-3.09 0,-3.09 1.17,0 1.17,0 0,-3.21 0,-3.21 -1.14,0 -1.14,0 0,-3.09 0,-3.09 1.14,0 1.14,0 0,-3.21 0,-3.21 -1.14,0 -1.14,0 0,-1.95 0,-1.95 6.1954,0 c 3.69508,0 6.2749,-0.0228 6.3924,-0.0565 0.14503,-0.0416 1.11457,-0.96229 3.67433,-3.48922 2.80113,-2.76519 3.48898,-3.47467 3.53726,-3.64849 0.039,-0.14052 0.0601,-4.56397 0.0603,-12.68079 l 3.3e-4,-12.465 2.22,0 2.22,0 0,-1.14 0,-1.14 2.85,0 2.85,0 0,1.14 0,1.14 3.21,0 3.21,0 0,-1.14 0,-1.14 2.88,0 2.88,0 0,1.14 0,1.14 1.32,0 1.32,0 0,2.08219 0,2.08219 1.45458,1.45901 c 1.10526,1.10865 1.5051,1.47306 1.665,1.51748 0.13296,0.0369 4.15864,0.0586 10.93542,0.0588 l 10.725,6e-4 0,0.18 0,0.18 2.67,0 2.67,0 0,-0.93 0,-0.93 -2.67,0 -2.67,0 0,0.18 0,0.18 -10.63445,0 -10.63445,0 -1.18555,-1.18443 -1.18555,-1.18444 0,-1.84556 0,-1.84556 1.32,0 1.32,0 0,-2.85 0,-2.85 -3.21,0 -3.21,0 0,1.14 0,1.13999 -2.88,0 -2.88,0 0,-1.13999 0,-1.14 -3.21,0 -3.21,0 0,1.14 0,1.13999 -2.85,0 -2.85,0 0,-1.13999 0,-1.14 -3.21,0 -3.21,0 0,2.85 0,2.85 0.42,0 0.42,0 0.003,12.375 0.003,12.37499 -3.25788,3.22334 -3.25787,3.22333 -6.105,0.002 -6.10505,10e-4 0,-1.68 0,-1.68 1.11,0 1.11,0 0,-3.21 0,-3.21 -0.87,0 -0.87,0 0,-14.59591 0,-14.59592 0.2948,-0.1047 c 0.57747,-0.2051 1.14465,-0.73891 1.42394,-1.34018 0.21921,-0.47193 0.25756,-1.00238 0.25756,-3.56329 0,-2.5609 -0.0383,-3.09135 -0.25756,-3.56328 -0.27929,-0.60127 -0.84647,-1.13508 -1.42394,-1.34018 l -0.2948,-0.1047 0,-6.45183 0,-6.45184 0.2948,-0.1047 c 0.16215,-0.0576 0.43054,-0.2067 0.59644,-0.33135 0.59784,-0.44921 0.93169,-1.02068 1.02751,-1.75883 0.075,-0.5775 0.0747,-5.05004 -3.6e-4,-5.63328 -0.11146,-0.86637 -0.64329,-1.60782 -1.43161,-1.99591 -0.37539,-0.18481 -0.42738,-0.19409 -1.08678,-0.19409 -0.65939,0 -0.71138,0.009 -1.08678,0.19409 -0.50351,0.24788 -0.96125,0.70561 -1.20912,1.20912 l -0.1941,0.39426 0,3.21253 0,3.21252 0.1941,0.39426 c 0.10729,0.21794 0.33214,0.53231 0.50277,0.70294 0.30465,0.30465 0.92798,0.67028 1.14271,0.67028 0.10655,0 0.11042,0.22747 0.11042,6.48 0,6.25252 -0.004,6.48 -0.11042,6.48 -0.21473,0 -0.83806,0.36562 -1.14271,0.67027 -0.17063,0.17063 -0.39548,0.485 -0.50277,0.70294 l -0.1941,0.39426 0,3.21253 0,3.21252 0.1941,0.39426 c 0.10729,0.21794 0.33214,0.53231 0.50277,0.70294 0.30465,0.30465 0.92798,0.67028 1.14271,0.67028 0.10692,0 0.11042,0.46268 0.11042,14.61 l 0,14.60999 -1.41,0 -1.41,0 0,3.21 0,3.21 1.17,0 1.17,0 0,4.2 0,4.20001 -1.14,0 -1.14,0 0,3.21 0,3.21 1.14,0 1.14,0 0,3.08999 0,3.09 -1.14,0 -1.14,0 0,3.21 0,3.21 1.11,0 1.11,0 0,3.09 0,3.09 -1.14,0 -1.14,0 0,3.21 0,3.21 2.85,0 2.85,0 0,-3.21 z M 20.29179,43.75919 c -0.35136,-0.12428 -0.81185,-0.59509 -0.93471,-0.95566 -0.20702,-0.60757 -0.0717,-1.18323 0.38578,-1.64067 0.64574,-0.64574 1.56855,-0.64574 2.21428,0 0.64574,0.64574 0.64574,1.56854 0,2.21428 -0.45544,0.45545 -1.06349,0.59494 -1.66535,0.38205 z m 0,-22.92 c -0.35136,-0.12428 -0.81185,-0.59509 -0.93471,-0.95566 -0.20702,-0.60757 -0.0717,-1.18323 0.38578,-1.64067 0.64574,-0.64574 1.56855,-0.64574 2.21428,0 0.64574,0.64574 0.64574,1.56855 0,2.21428 -0.45544,0.45545 -1.06349,0.59494 -1.66535,0.38205 z M 33.24,121.56 l 0,-1.32 4.95,0 4.95,0 0,1.32 0,1.32 2.85,0 2.85,0 0,-3.21 0,-3.21 -2.85,0 -2.85,0 0,1.32 0,1.32 -4.95,0 -4.95,0 0,-1.32 0,-1.32 -2.85,0 -2.85,0 0,3.21 0,3.21 2.85,0 2.85,0 0,-1.32 z m 24.36,-16.09831 0,-6.07829 4.13809,-4.095 c 3.39858,-3.36318 4.14909,-4.1346 4.19967,-4.31669 0.04,-0.14386 0.0623,-2.13895 0.0636,-5.68171 l 0.002,-5.46 5.95328,-5.98793 5.95328,-5.98793 6.315,0.003 6.315,0.003 0,0.18 0,0.18 2.67,0 2.67,0 0,-0.93 0,-0.93 -2.67,0 -2.67,0 0,0.18 0,0.18 -6.51394,0 c -3.77127,0 -6.5565,0.0229 -6.615,0.0543 -0.0556,0.0299 -2.90231,2.876 -6.32606,6.32476 l -6.225,6.27047 0,5.60676 0,5.60676 -3.615,3.59348 -3.615,3.59348 -0.0156,-2.565 -0.0156,-2.565 -3.44936,0 -3.44935,0 0,6.93 0,6.93 -8.76,0 -8.76,0 0,-1.32 0,-1.32 -2.85,0 -2.85,0 0,3.21 0,3.21 2.85,0 2.85,0 0,-1.32 0,-1.32 8.76,0 8.76,0 0,1.95 0,1.95 3.45,0 3.45,0 0,-6.07831 z m 115.26927,-7.53044 c 1.11893,-0.3714 1.85073,-1.396 1.85073,-2.59125 0,-0.90123 -0.38441,-1.6732 -1.0929,-2.19476 C 172.9416,92.6406 172.93646,92.64 169.32,92.64 c -2.98034,0 -3.18992,0.007 -3.54953,0.11805 -0.2102,0.0649 -0.4358,0.15813 -0.50132,0.20714 -0.11302,0.0845 -0.57938,-0.37096 -9.05962,-8.84805 l -8.94048,-8.93714 -5.35452,0 -5.35453,0 0,-0.18 0,-0.18 -2.67,0 -2.67,0 0,0.93 0,0.93 2.67,0 2.67,0 0,-0.18 0,-0.18 5.11508,0 5.11508,0 8.77215,8.775 c 8.32189,8.32459 8.76757,8.78112 8.68296,8.89415 -0.17121,0.22871 -0.32527,0.86853 -0.32527,1.35085 0,1.40485 0.96796,2.50782 2.36935,2.69983 0.19836,0.0272 1.67015,0.0437 3.27065,0.0367 2.82337,-0.0124 2.92189,-0.0167 3.30927,-0.14526 z m -4.00739,-0.85301 c -0.52925,-0.16347 -1.08165,-0.73885 -1.22774,-1.2788 -0.20866,-0.77123 0.20082,-1.61853 0.98253,-2.03303 0.36122,-0.19154 1.10544,-0.19154 1.46666,0 0.37646,0.19962 0.63211,0.44743 0.82989,0.80446 0.15438,0.2787 0.17678,0.37995 0.17678,0.79913 0,0.41919 -0.0224,0.52044 -0.17678,0.79914 -0.32523,0.5871 -0.83751,0.91675 -1.47322,0.94803 -0.2145,0.0106 -0.47465,-0.007 -0.57812,-0.0389 z M 33.18,96.36 l 0,-1.32 1.875,-6e-4 c 1.03917,0 1.96861,-0.0265 2.085,-0.0591 0.3047,-0.0852 8.01165,-7.79253 8.09991,-8.10026 0.0378,-0.13166 0.0601,-1.90463 0.0601,-4.77018 l 0,-4.56064 2.7,-2.6995 2.7,-2.69951 0,2.62476 0,2.62475 3.45,0 3.45,0 0,-6.21 0,-6.21 16.47,0 16.47,0 0,0.18 0,0.18 2.67,0 2.67,0 0,-0.93 0,-0.93 -2.67,0 -2.67,0 0,0.18 0,0.18 -16.47,0 -16.47,0 0,-2.67 0,-2.67 -3.45,0 -3.45,0 0,6.01427 0,6.01427 -3.27,3.272 -3.27,3.27201 0,4.70854 0,4.70855 -3.70482,3.70518 -3.70482,3.70518 -1.78518,0 -1.78518,0 0,-1.32 0,-1.32 -2.85,0 -2.85,0 0,3.21 0,3.21 2.85,0 2.85,0 0,-1.32 z m 139.68927,-7.42875 c 1.11893,-0.3714 1.85073,-1.396 1.85073,-2.59125 0,-0.90123 -0.38441,-1.6732 -1.0929,-2.19476 C 172.9416,83.6406 172.93646,83.64 169.32,83.64 c -3.62903,0 -3.61918,-0.001 -4.32275,0.51676 l -0.37421,0.27547 -6.00722,-6.00612 -6.00722,-6.00611 -8.0243,0 -8.0243,0 0,-0.18 0,-0.18 -2.67,0 -2.67,0 0,0.93 0,0.93 2.67,0 2.67,0 0,-0.18 0,-0.18 7.78511,0 7.78512,0 5.95494,5.95517 5.95496,5.95518 -0.0601,0.20943 c -0.033,0.11519 -0.0601,0.41601 -0.0601,0.66851 0,1.3961 0.9718,2.50005 2.36935,2.69154 0.19836,0.0272 1.67015,0.0437 3.27065,0.0367 2.82337,-0.0124 2.92189,-0.0167 3.30927,-0.14526 z m -4.00739,-0.85301 c -0.52925,-0.16347 -1.08165,-0.73885 -1.22774,-1.2788 -0.20866,-0.77123 0.20082,-1.61853 0.98253,-2.03304 0.36122,-0.19153 1.10544,-0.19153 1.46666,0 0.37646,0.19962 0.63211,0.44744 0.82989,0.80447 0.15438,0.2787 0.17678,0.37995 0.17678,0.79913 0,0.41918 -0.0224,0.52043 -0.17678,0.79913 -0.32523,0.5871 -0.83751,0.91676 -1.47322,0.94803 -0.2145,0.0105 -0.47465,-0.007 -0.57812,-0.0389 z M 114.48,81.99 l 0,-2.61 -0.18,0 -0.18,0 0,-7.2 0,-7.2 8.55,0 8.55,0 0,0.18 0,0.18 2.67,0 2.67,0 0,-0.93 0,-0.93 -2.67,0 -2.67,0 0,0.18 0,0.18 -8.55,0 -8.55,0 0,-2.22 0,-2.22 8.55,0 8.55,0 0,0.18 0,0.18 2.67,0 2.67,0 0,-0.93 0,-0.93 -2.67,0 -2.67,0 0,0.18 0,0.18 -17.67,0 -17.67,0 0,-0.18 0,-0.18 -2.67,0 -2.67,0 0,0.18 0,0.18 -6.8543,0 -6.85429,0 L 75.9157,57.34573 75,56.43145 l -6e-4,-6.15072 c 0,-3.82615 -0.0225,-6.23061 -0.0591,-6.3621 -0.0436,-0.15688 -0.31906,-0.47008 -1.06866,-1.215 L 72.86196,41.7 l -1.661,0 -1.66101,0 0,-1.14 0,-1.14 -3.21,0 -3.21,0 0,1.14 0,1.14 -2.88,0 -2.88,0 0,-1.14 0,-1.14 -3.21,0 -3.21,0 0,1.14 0,1.14 -2.85,0 -2.85,0 0,-1.14 0,-1.14 -3.21,0 -3.21,0 0,1.14 0,1.14 -3.21,0 -3.21,0 -0.002,-0.915 c -0.003,-1.51839 -0.12758,-2.07483 -0.59358,-2.65274 -0.26138,-0.32415 -0.73431,-0.66947 -1.08976,-0.79572 l -0.29476,-0.10471 0,-4.57591 0,-4.57592 3.3,0 3.3,0 0,1.14 0,1.14 3.21,0 3.21,0 0,-2.85 0,-2.85 -3.21,0 -3.21,0 0,1.14 0,1.14 -3.3,0 -3.3,0 0,-1.30592 0,-1.30591 0.2948,-0.10471 c 0.16215,-0.0576 0.43054,-0.20669 0.59644,-0.33134 0.59784,-0.44921 0.93169,-1.02068 1.02751,-1.75883 0.075,-0.5775 0.0747,-5.05005 -3.6e-4,-5.63329 -0.11146,-0.86636 -0.64329,-1.60781 -1.43161,-1.9959 -0.37539,-0.18481 -0.42738,-0.1941 -1.08678,-0.1941 -0.65939,0 -0.71138,0.009 -1.08678,0.1941 -0.50351,0.24787 -0.96125,0.70561 -1.20912,1.20912 l -0.1941,0.39426 0,3.21252 0,3.21252 0.1941,0.39427 c 0.10729,0.21793 0.33214,0.5323 0.50277,0.70294 0.30465,0.30465 0.92798,0.67027 1.14271,0.67027 0.10655,0 0.11042,0.22747 0.11042,6.48 0,6.25253 -0.004,6.48 -0.11042,6.48 -0.21473,0 -0.83806,0.36562 -1.14271,0.67028 -0.17063,0.17063 -0.39548,0.485 -0.50277,0.70294 l -0.1941,0.39426 0,3.21252 0,3.21252 0.1941,0.39426 c 0.10729,0.21794 0.33214,0.53231 0.50277,0.70294 0.30465,0.30466 0.92798,0.67028 1.14271,0.67028 0.1061,0 0.11042,0.1537 0.11042,3.93 l 0,3.93 -1.32,0 -1.32,0 0,2.85 0,2.85 3.21,0 3.21,0 0,-2.85 0,-2.85 -1.32,0 -1.32,0 0,-3.91592 0,-3.91591 0.2948,-0.10471 c 0.35546,-0.12624 0.82838,-0.47156 1.08977,-0.79572 0.46343,-0.57472 0.59047,-1.13605 0.59358,-2.62274 l 0.002,-0.885 3.21,0 3.21,0 0,1.14 0,1.14 3.21,0 3.21,0 0,-1.14 0,-1.14 2.85,0 2.85,0 0,1.14 0,1.14 3.21,0 3.21,0 0,-1.14 0,-1.14 2.88,0 2.88,0 0,1.14 0,1.14 3.21,0 3.21,0 0,-1.14 0,-1.14 1.42413,0 1.42413,0 0.73587,0.7341 0.73587,0.7341 0,6.29748 0,6.29748 1.18409,1.18949 c 0.88903,0.89309 1.23664,1.20409 1.395,1.24809 0.13161,0.0366 2.82197,0.0587 7.15591,0.0589 l 6.945,3.3e-4 0,0.18 0,0.18 2.67,0 2.67,0 0,-0.18 0,-0.18 8.55,0 8.55,0 0,9.99 0,9.99 -0.18,0 -0.18,0 0,2.61 0,2.61 0.93,0 0.93,0 0,-2.61 z M 29.29179,43.75919 C 28.73504,43.56226 28.26,42.87663 28.26,42.27 c 0,-0.83859 0.75141,-1.59 1.59,-1.59 0.83859,0 1.59,0.75141 1.59,1.59 0,0.40914 -0.16641,0.79069 -0.48286,1.10714 -0.45544,0.45545 -1.06349,0.59494 -1.66535,0.38205 z m 0,-22.92 C 28.73504,20.64226 28.26,19.95663 28.26,19.35 c 0,-0.83859 0.75141,-1.59 1.59,-1.59 0.83859,0 1.59,0.75141 1.59,1.59 0,0.40914 -0.16641,0.7907 -0.48286,1.10714 -0.45544,0.45545 -1.06349,0.59494 -1.66535,0.38205 z M 117.3,81.99 l 0,-2.61 -0.93,0 -0.93,0 0,2.61 0,2.61 0.93,0 0.93,0 0,-2.61 z m -84.06,-2.34 0,-3.21 -1.41,0 -1.41,0 0,-2.79 0,-2.79 1.32,0 1.32,0 0,-2.85 0,-2.85 -3.21,0 -3.21,0 0,2.85 0,2.85 1.32,0 1.32,0 0,2.79 0,2.79 -0.87,0 -0.87,0 0,3.21 0,3.21 2.85,0 2.85,0 0,-3.21 z m 139.62927,0.28124 C 173.9882,79.55985 174.72,78.53525 174.72,77.34 c 0,-0.90123 -0.38441,-1.6732 -1.0929,-2.19476 C 172.9416,74.6406 172.93646,74.64 169.32,74.64 c -3.62884,0 -3.61922,-0.001 -4.32251,0.51659 l -0.37398,0.2753 -2.94817,-2.94594 -2.94817,-2.94595 -11.08359,0 -11.08358,0 0,-0.18 0,-0.18 -2.67,0 -2.67,0 0,0.93 0,0.93 2.67,0 2.67,0 0,-0.18 0,-0.18 10.84523,0 10.84523,0 2.89481,2.89526 2.8948,2.89527 -0.06,0.20934 c -0.033,0.11514 -0.06,0.41592 -0.06,0.66842 0,1.3961 0.9718,2.50005 2.36935,2.69154 0.19836,0.0272 1.67015,0.0437 3.27065,0.0367 2.82337,-0.0124 2.92189,-0.0167 3.30927,-0.14526 z m -4.00739,-0.853 c -0.52925,-0.16347 -1.08165,-0.73885 -1.22774,-1.2788 -0.20866,-0.77123 0.20082,-1.61853 0.98253,-2.03304 0.36122,-0.19153 1.10544,-0.19153 1.46666,0 0.37646,0.19962 0.63211,0.44744 0.82989,0.80447 0.15438,0.2787 0.17678,0.37995 0.17678,0.79913 0,0.41918 -0.0224,0.52043 -0.17678,0.79913 -0.32523,0.5871 -0.83751,0.91676 -1.47322,0.94803 -0.2145,0.0105 -0.47465,-0.007 -0.57812,-0.0389 z m 4.00739,-8.147 C 173.9882,70.55985 174.72,69.53525 174.72,68.34 c 0,-0.90123 -0.38441,-1.6732 -1.0929,-2.19476 C 172.9416,65.6406 172.93646,65.64 169.32,65.64 c -3.00347,0 -3.18757,0.006 -3.55795,0.12064 -0.41462,0.12807 -1.04554,0.54681 -1.21612,0.80715 l -0.0997,0.15221 -13.9431,0 -13.9431,0 0,-0.18 0,-0.18 -2.67,0 -2.67,0 0,0.93 0,0.93 2.67,0 2.67,0 0,-0.18 0,-0.18 13.68,0 13.68,0 0,0.47368 c 0,1.41152 0.96503,2.51373 2.36935,2.70615 0.19836,0.0272 1.67015,0.0437 3.27065,0.0367 2.82337,-0.0124 2.92189,-0.0167 3.30927,-0.14526 z m -4.00739,-0.853 c -0.52925,-0.16347 -1.08165,-0.73885 -1.22774,-1.2788 -0.20866,-0.77123 0.20082,-1.61853 0.98253,-2.03303 0.36122,-0.19154 1.10544,-0.19154 1.46666,0 0.37646,0.19962 0.63211,0.44743 0.82989,0.80446 0.15438,0.2787 0.17678,0.37995 0.17678,0.79913 0,0.41918 -0.0224,0.52043 -0.17678,0.79913 -0.32523,0.5871 -0.83751,0.91676 -1.47322,0.94803 -0.2145,0.0105 -0.47465,-0.007 -0.57812,-0.0389 z M 136.56,61.65 l 0,-0.93 -2.67,0 -2.67,0 0,0.93 0,0.93 2.67,0 2.67,0 0,-0.93 z m 36.30927,0.28125 c 1.11893,-0.3714 1.85073,-1.396 1.85073,-2.59125 0,-0.90123 -0.38441,-1.6732 -1.0929,-2.19476 C 172.9416,56.6406 172.93646,56.64 169.32,56.64 c -2.9884,0 -3.18912,0.007 -3.55243,0.11894 -0.7677,0.23712 -1.49955,0.9586 -1.71454,1.69025 l -0.10303,0.35065 -2.12865,6e-5 -2.12864,6e-5 -1.71375,-1.71 -1.71374,-1.71 -9.85261,0 -9.85261,0 0,-0.18 0,-0.18 -2.67,0 -2.67,0 0,0.93 0,0.93 2.67,0 2.67,0 0,-0.18 0,-0.18 9.61541,0 9.61541,0 1.64959,1.651 c 1.25718,1.25825 1.69955,1.66496 1.85959,1.70966 0.11941,0.0334 1.16948,0.0588 2.43404,0.059 l 2.22405,3.6e-4 0.10268,0.32574 c 0.2085,0.66145 0.87163,1.34612 1.55542,1.60594 0.51965,0.19745 0.91694,0.21808 3.94381,0.20483 2.82337,-0.0124 2.92189,-0.0167 3.30927,-0.14526 z m -4.00739,-0.85301 c -0.52925,-0.16347 -1.08165,-0.73885 -1.22774,-1.2788 -0.15391,-0.56886 0.0793,-1.32809 0.52931,-1.7232 0.38967,-0.34213 0.66223,-0.44416 1.18655,-0.44416 0.38163,0 0.53192,0.0275 0.73333,0.13433 0.37646,0.19962 0.63211,0.44743 0.82989,0.80446 0.15438,0.2787 0.17678,0.37995 0.17678,0.79913 0,0.41919 -0.0224,0.52043 -0.17678,0.79914 -0.32523,0.5871 -0.83751,0.91675 -1.47322,0.94803 -0.2145,0.0106 -0.47465,-0.007 -0.57812,-0.0389 z M 95.88,55.95 l 0,-0.93 -2.67,0 -2.67,0 0,0.18 0,0.18 -5.145,-0.002 -5.145,-10e-4 -1.06763,-1.03355 -1.06763,-1.03354 0.002,-5.7 c 0.001,-3.73241 -0.019,-5.77249 -0.0594,-5.91 -0.0473,-0.16129 -0.86494,-1.02105 -3.52466,-3.70644 l -3.46302,-3.49634 -8.33953,0.001 -8.33953,10e-4 -1.39547,-1.39453 -1.39547,-1.39452 0,-4.20452 0,-4.20452 0.3202,-0.10093 c 0.73409,-0.23141 1.42636,-0.95176 1.67527,-1.74323 0.13209,-0.42001 0.13453,-0.48372 0.13453,-3.51775 0,-3.03404 -0.002,-3.09775 -0.13453,-3.51776 -0.66134,-2.1029 -3.48119,-2.56755 -4.79023,-0.78934 -0.41914,0.56936 -0.50524,0.94143 -0.50524,2.18342 l 0,1.04368 -2.43,0 -2.43,0 0,-1.14 0,-1.14 -3.21,0 -3.21,0 0,2.85 0,2.85 3.21,0 3.21,0 0,-1.14 0,-1.14 2.43,0 2.43,0 0,1.55368 c 0,1.37953 0.0133,1.59684 0.11894,1.93874 0.23712,0.76771 0.9586,1.49955 1.69025,1.71454 l 0.35065,0.10304 6e-5,4.43753 6e-5,4.43753 1.66484,1.66874 c 1.27348,1.27647 1.71425,1.68248 1.875,1.72714 0.13172,0.0366 3.26693,0.0575 8.40016,0.0559 l 8.19,-0.002 3.19327,3.22785 3.19328,3.22785 9e-4,5.85 9e-4,5.85 1.3358,1.30343 c 0.97076,0.94724 1.39319,1.32016 1.5458,1.36467 0.13568,0.0396 2.06262,0.0614 5.445,0.0616 l 5.23509,3.2e-4 0,0.18 0,0.18 2.67,0 2.67,0 0,-0.93 z M 50.54188,19.67824 c -0.52924,-0.16347 -1.08165,-0.73885 -1.22774,-1.2788 -0.20866,-0.77123 0.20083,-1.61853 0.98253,-2.03303 0.36122,-0.19154 1.10544,-0.19154 1.46666,0 0.37646,0.19962 0.63211,0.44743 0.82989,0.80446 0.15438,0.2787 0.17678,0.37995 0.17678,0.79913 0,0.41919 -0.0224,0.52043 -0.17678,0.79913 -0.32523,0.58711 -0.83751,0.91677 -1.47322,0.94803 -0.2145,0.0106 -0.47465,-0.007 -0.57812,-0.0389 z M 95.88,53.19 l 0,-0.93 -2.67,0 -2.67,0 0,0.18 0,0.18 -4.06419,0 -4.0642,0 -0.7958,-0.79417 -0.79581,-0.79416 -6e-4,-5.46084 c 0,-3.5648 -0.0218,-5.53374 -0.062,-5.67083 -0.0476,-0.16186 -0.95865,-1.1146 -3.97466,-4.15642 l -3.91295,-3.94641 -5.39914,10e-4 -5.39913,0.001 -0.73587,-0.7341 -0.73586,-0.7341 0,-3.51495 0,-3.51494 0.32574,-0.10268 c 0.72847,-0.22963 1.4221,-0.95463 1.67141,-1.74701 0.12995,-0.413 0.13285,-0.48975 0.13285,-3.51222 0,-3.02248 -0.003,-3.09923 -0.13285,-3.51223 -0.66331,-2.10821 -3.48101,-2.5756 -4.79191,-0.79487 -0.50438,0.68553 -0.50498,0.69067 -0.50498,4.30713 0,2.9884 0.007,3.18912 0.11894,3.55243 0.23712,0.7677 0.9586,1.49955 1.69025,1.71454 l 0.35065,0.10303 6e-5,3.74601 6e-5,3.746 1.00363,1.00994 c 0.74492,0.7496 1.05812,1.02508 1.215,1.06866 0.13077,0.0363 2.21321,0.0577 5.46137,0.0562 l 5.25,-0.003 3.64333,3.6779 3.64334,3.6779 0.002,5.60621 0.002,5.60622 1.0638,1.06977 c 0.79296,0.79741 1.11757,1.08472 1.275,1.12845 0.12822,0.0356 1.84384,0.0588 4.3662,0.059 l 4.15497,3.7e-4 0,0.18 0,0.18 2.67,0 2.67,0 0,-0.93 z M 59.54188,19.67824 c -0.52924,-0.16347 -1.08165,-0.73885 -1.22774,-1.2788 -0.20866,-0.77123 0.20083,-1.61853 0.98253,-2.03303 0.36122,-0.19154 1.10544,-0.19154 1.46666,0 0.37646,0.19962 0.63211,0.44743 0.82989,0.80446 0.15438,0.2787 0.17678,0.37995 0.17678,0.79913 0,0.41919 -0.0224,0.52043 -0.17678,0.79913 -0.32523,0.58711 -0.83751,0.91677 -1.47322,0.94803 -0.2145,0.0106 -0.47465,-0.007 -0.57812,-0.0389 z M 136.56,53.94 l 0,-0.18 9.765,-3.6e-4 c 6.17366,-2.4e-4 9.84223,-0.0219 9.975,-0.059 0.15809,-0.0441 0.54355,-0.39256 1.5595,-1.40967 l 1.3495,-1.351 2.37454,0 2.37455,0 0.10268,0.32574 c 0.22963,0.72847 0.95463,1.4221 1.747,1.67141 0.413,0.12995 0.48975,0.13285 3.51223,0.13285 3.02248,0 3.09923,-0.003 3.51223,-0.13285 1.43697,-0.45212 2.22111,-1.98527 1.76713,-3.4551 -0.24036,-0.77818 -0.94549,-1.48175 -1.72693,-1.72312 -0.36331,-0.11221 -0.56403,-0.11893 -3.55243,-0.11893 -2.9884,0 -3.18912,0.007 -3.55243,0.11893 -0.7677,0.23713 -1.49955,0.95861 -1.71454,1.69026 l -0.10303,0.35064 -2.60713,7e-5 -2.60713,5e-5 -1.41449,1.41 -1.41448,1.41 -9.67338,0 -9.67339,0 0,-0.17999 0,-0.18 -2.67,0 -2.67,0 0,0.93 0,0.92999 2.67,0 2.67,0 0,-0.17999 z m 32.30188,-1.86176 c -0.52925,-0.16347 -1.08165,-0.73885 -1.22774,-1.2788 -0.15391,-0.56886 0.0793,-1.32809 0.52931,-1.7232 0.38967,-0.34213 0.66223,-0.44416 1.18655,-0.44416 0.38163,0 0.53192,0.0275 0.73333,0.13433 0.37646,0.19962 0.63211,0.44743 0.82989,0.80446 0.15438,0.2787 0.17678,0.37995 0.17678,0.79913 0,0.41919 -0.0224,0.52043 -0.17678,0.79913 -0.32523,0.58711 -0.83751,0.91676 -1.47322,0.94803 -0.2145,0.0105 -0.47465,-0.007 -0.57812,-0.0389 z M 95.88,50.31 l 0,-0.93 -2.67,0 -2.67,0 0,0.18 0,0.18 -2.3543,0 -2.35429,0 L 84.9157,48.82573 84,47.91145 l -6e-4,-4.14072 c 0,-2.51885 -0.0234,-4.22298 -0.0591,-4.35073 -0.0467,-0.16683 -1.52668,-1.6777 -7.19966,-7.3499 l -7.14063,-7.13991 0,-0.81414 0,-0.81413 0.3202,-0.10094 c 0.73409,-0.2314 1.42636,-0.95175 1.67528,-1.74322 0.13209,-0.42001 0.13452,-0.48372 0.13452,-3.51776 0,-3.02247 -0.003,-3.09923 -0.13284,-3.51222 -0.45213,-1.43698 -1.98528,-2.22112 -3.45511,-1.76714 -0.77818,0.24036 -1.48175,0.94549 -1.72312,1.72694 -0.11221,0.3633 -0.11893,0.56403 -0.11893,3.55242 0,2.9884 0.007,3.18912 0.11893,3.55243 0.23713,0.7677 0.95861,1.49955 1.69026,1.71454 l 0.35064,0.10303 0,1.04941 0,1.04942 7.2,7.20092 7.2,7.20093 0,4.28624 0,4.28624 1.18409,1.18949 c 0.88903,0.89309 1.23665,1.20409 1.395,1.24809 0.12127,0.0337 1.25011,0.0587 2.65591,0.0589 l 2.44517,3.3e-4 0,0.18 0,0.18 2.67,0 2.67,0 0,-0.93 z M 68.54188,19.67824 c -0.52924,-0.16347 -1.08165,-0.73885 -1.22773,-1.2788 -0.20867,-0.77123 0.20082,-1.61853 0.98252,-2.03303 0.36122,-0.19154 1.10544,-0.19154 1.46666,0 0.37646,0.19962 0.63211,0.44743 0.82989,0.80446 0.15438,0.2787 0.17678,0.37995 0.17678,0.79913 0,0.41919 -0.0224,0.52043 -0.17678,0.79913 -0.32523,0.58711 -0.83751,0.91677 -1.47322,0.94803 -0.2145,0.0106 -0.47465,-0.007 -0.57812,-0.0389 z M 136.56,51.06 l 0,-0.18 7.395,-3.6e-4 c 4.73361,-2.4e-4 7.47256,-0.0219 7.6105,-0.0602 0.1741,-0.0484 1.05408,-0.90699 4.58082,-4.46966 l 4.36533,-4.40978 1.72322,0 1.72322,0 0.10268,0.32574 c 0.22963,0.72847 0.95463,1.4221 1.747,1.67141 0.413,0.12995 0.48975,0.13285 3.51223,0.13285 3.02248,0 3.09923,-0.003 3.51223,-0.13285 1.43697,-0.45212 2.22111,-1.98528 1.76713,-3.4551 C 174.359,39.70387 173.65387,39.0003 172.87243,38.75893 172.50912,38.64672 172.3084,38.64 169.32,38.64 c -2.9884,0 -3.18912,0.007 -3.55243,0.11893 -0.7677,0.23713 -1.49955,0.95861 -1.71454,1.69026 l -0.10303,0.35064 -1.95,-10e-4 -1.95,-0.001 -4.44,4.47416 -4.44,4.47416 -7.305,-0.003 -7.305,-0.003 0,-0.18 0,-0.18 -2.67,0 -2.67,0 0,0.93 0,0.93 2.67,0 2.67,0 0,-0.18 z m 32.30188,-7.98176 c -0.52925,-0.16347 -1.08165,-0.73885 -1.22774,-1.2788 -0.15391,-0.56886 0.0793,-1.32809 0.52931,-1.7232 0.38967,-0.34213 0.66223,-0.44416 1.18655,-0.44416 0.38163,0 0.53192,0.0275 0.73333,0.13433 0.37646,0.19962 0.63211,0.44743 0.82989,0.80446 0.15438,0.2787 0.17678,0.37995 0.17678,0.79913 0,0.41919 -0.0224,0.52043 -0.17678,0.79913 -0.32523,0.58711 -0.83751,0.91676 -1.47322,0.94803 -0.2145,0.0105 -0.47465,-0.007 -0.57812,-0.0389 z M 95.88,47.49 l 0,-0.93 -2.67,0 -2.67,0 0,0.18 0,0.18 -1.51349,0 -1.5135,0 -0.4065,-0.40339 -0.40651,-0.40339 -6e-4,-3.69161 c 0,-2.22449 -0.0237,-3.77507 -0.0591,-3.90161 -0.0462,-0.16521 -0.90985,-1.06087 -4.04966,-4.19983 l -3.99066,-3.98983 0,-3.51421 0,-3.51421 0.3202,-0.10094 c 0.73409,-0.2314 1.42636,-0.95175 1.67528,-1.74322 0.13209,-0.42001 0.13452,-0.48372 0.13452,-3.51776 0,-3.02247 -0.003,-3.09923 -0.13284,-3.51222 -0.45213,-1.43698 -1.98528,-2.22112 -3.45511,-1.76714 -0.77818,0.24036 -1.48175,0.94549 -1.72312,1.72694 -0.11221,0.3633 -0.11893,0.56403 -0.11893,3.55242 0,3.00347 0.006,3.18757 0.12064,3.55795 0.23633,0.76513 0.9587,1.49457 1.69406,1.71064 l 0.34513,0.10141 0,3.74897 0,3.74896 4.05,4.05163 4.05,4.05163 0,3.83362 0,3.83362 0.67223,0.68134 c 0.48098,0.4875 0.73277,0.69816 0.885,0.74045 0.11703,0.0325 0.93502,0.0593 1.81777,0.0594 l 1.60517,3.4e-4 0,0.18 0,0.18 2.67,0 2.67,0 0,-0.93 z M 77.54188,19.67824 c -0.52924,-0.16347 -1.08165,-0.73885 -1.22773,-1.2788 -0.20867,-0.77123 0.20082,-1.61853 0.98252,-2.03303 0.36122,-0.19154 1.10544,-0.19154 1.46666,0 0.37646,0.19962 0.63211,0.44743 0.82989,0.80446 0.15438,0.2787 0.17678,0.37995 0.17678,0.79913 0,0.41919 -0.0224,0.52043 -0.17678,0.79913 -0.32523,0.58711 -0.83751,0.91677 -1.47322,0.94803 -0.2145,0.0106 -0.47465,-0.007 -0.57812,-0.0389 z M 136.56,48.24 l 0,-0.18 4.515,-3.6e-4 c 2.76325,-1.8e-4 4.59648,-0.0231 4.725,-0.0591 0.16693,-0.0467 1.74819,-1.59717 7.70991,-7.55966 l 7.49991,-7.50087 1.47413,0 1.47414,0 0.10268,0.32574 c 0.22963,0.72847 0.95463,1.42211 1.747,1.67141 0.413,0.12995 0.48975,0.13285 3.51223,0.13285 3.02248,0 3.09923,-0.003 3.51223,-0.13285 1.14477,-0.36018 1.88777,-1.38239 1.88777,-2.59715 0,-1.19819 -0.74643,-2.24095 -1.84757,-2.58106 -0.36331,-0.11222 -0.56403,-0.11894 -3.55243,-0.11894 -2.9884,0 -3.18912,0.007 -3.55243,0.11894 -0.7677,0.23712 -1.49955,0.9586 -1.71454,1.69025 l -0.10303,0.35065 -1.70944,6e-5 -1.70944,6e-5 -7.56088,7.56 -7.56088,7.55999 -4.42468,0 -4.42468,0 0,-0.18 0,-0.18 -2.67,0 -2.67,0 0,0.93 0,0.93 2.67,0 2.67,0 0,-0.18 z m 32.30188,-14.16176 c -0.52925,-0.16347 -1.08165,-0.73885 -1.22774,-1.2788 -0.20866,-0.77123 0.20082,-1.61853 0.98253,-2.03303 0.36122,-0.19154 1.10544,-0.19154 1.46666,0 0.37646,0.19962 0.63211,0.44743 0.82989,0.80446 0.15438,0.2787 0.17678,0.37995 0.17678,0.79913 0,0.41919 -0.0224,0.52043 -0.17678,0.79913 -0.32523,0.58711 -0.83751,0.91677 -1.47322,0.94803 -0.2145,0.0105 -0.47465,-0.007 -0.57812,-0.0389 z M 100.38,41.31 l 0,-2.61 -0.18,0 -0.18,0 -6e-4,-0.975 c 0,-0.53625 -0.0268,-1.0695 -0.0591,-1.185 -0.0466,-0.1665 -1.33283,-1.48385 -6.20966,-6.35989 L 87.6,24.03022 l 0,-0.36415 0,-0.36415 0.3202,-0.10094 c 0.73409,-0.2314 1.42636,-0.95175 1.67528,-1.74322 C 89.72757,21.03775 89.73,20.97404 89.73,17.94 89.73,14.91753 89.727,14.84077 89.59716,14.42778 89.14503,12.9908 87.61188,12.20666 86.14205,12.66064 85.36387,12.901 84.6603,13.60613 84.41893,14.38758 84.30672,14.75088 84.3,14.95161 84.3,17.94 c 0,3.00347 0.006,3.18757 0.12064,3.55795 0.23633,0.76513 0.9587,1.49457 1.69406,1.71064 l 0.34513,0.10141 0,0.59932 0,0.59932 6.21,6.21107 6.21,6.21107 0,0.88461 0,0.88461 -0.18,0 -0.18,0 0,2.61 0,2.61 0.93,0 0.93,0 0,-2.61 z M 86.54188,19.67824 c -0.52924,-0.16347 -1.08165,-0.73885 -1.22773,-1.2788 -0.20867,-0.77123 0.20082,-1.61853 0.98252,-2.03303 0.36122,-0.19154 1.10544,-0.19154 1.46666,0 0.37646,0.19962 0.63211,0.44743 0.82989,0.80446 0.15438,0.2787 0.17678,0.37995 0.17678,0.79913 0,0.41919 -0.0224,0.52043 -0.17678,0.79913 -0.32523,0.58711 -0.83751,0.91677 -1.47322,0.94803 -0.2145,0.0106 -0.47465,-0.007 -0.57812,-0.0389 z M 103.14,41.31 l 0,-2.61 -0.18,0 -0.18,0 -6e-4,-1.365 c 0,-0.76315 -0.0277,-1.45759 -0.0624,-1.575 -0.0473,-0.16017 -0.78005,-0.93604 -3.08828,-3.27 l -3.02626,-3.06 -10e-4,-3.06404 -0.001,-3.06404 0.32021,-0.10094 c 0.73408,-0.2314 1.42635,-0.95175 1.67527,-1.74322 0.13209,-0.42001 0.13452,-0.48372 0.13452,-3.51776 0,-3.02247 -0.003,-3.09923 -0.13284,-3.51222 -0.45213,-1.43698 -1.98528,-2.22112 -3.45511,-1.76714 -0.77817,0.24036 -1.48175,0.94549 -1.72311,1.72694 -0.11188,0.3633 -0.1186,0.56403 -0.1186,3.55242 0,3.00347 0.006,3.18757 0.12064,3.55795 0.23633,0.76513 0.9587,1.49457 1.69406,1.71064 l 0.34513,0.10141 0,3.28954 0,3.28954 3.08839,3.13046 3.08838,3.13046 0.002,1.275 0.002,1.275 -0.18,0 -0.18,0 0,2.61 0,2.61 0.93,0 0.93,0 0,-2.61 z M 95.54188,19.67824 c -0.52924,-0.16347 -1.08165,-0.73885 -1.22773,-1.2788 -0.20867,-0.77123 0.20082,-1.61853 0.98252,-2.03303 0.36122,-0.19154 1.10544,-0.19154 1.46666,0 0.37646,0.19962 0.63211,0.44743 0.82989,0.80446 0.15438,0.2787 0.17678,0.37995 0.17678,0.79913 0,0.41919 -0.0224,0.52043 -0.17678,0.79913 -0.32523,0.58711 -0.83751,0.91677 -1.47322,0.94803 -0.2145,0.0106 -0.47465,-0.007 -0.57812,-0.0389 z M 106.02,41.31 l 0,-2.61 -0.18,0 -0.18,0 0,-7.70518 0,-7.70517 0.29434,-0.0978 c 0.71536,-0.23761 1.39701,-0.95787 1.64113,-1.73413 0.13209,-0.42001 0.13453,-0.48372 0.13453,-3.51775 0,-3.02248 -0.003,-3.09923 -0.13285,-3.51223 -0.45212,-1.43697 -1.98528,-2.22112 -3.4551,-1.76713 -0.77818,0.24035 -1.48175,0.94549 -1.72312,1.72693 -0.11221,0.3633 -0.11893,0.56403 -0.11893,3.55242 0,3.00347 0.006,3.18757 0.12064,3.55795 0.23689,0.76696 0.90243,1.4428 1.67775,1.70371 l 0.39161,0.13179 0.0152,7.68328 0.0152,7.68327 -0.18023,0 -0.18023,0 0,2.61 0,2.61 0.93,0 0.93,0 0,-2.61 z m -1.47812,-21.63176 c -0.52925,-0.16347 -1.08165,-0.73885 -1.22774,-1.2788 -0.20866,-0.77123 0.20082,-1.61853 0.98253,-2.03303 0.36122,-0.19154 1.10544,-0.19154 1.46666,0 0.37646,0.19962 0.63211,0.44743 0.82989,0.80446 0.15438,0.2787 0.17678,0.37995 0.17678,0.79913 0,0.41919 -0.0224,0.52043 -0.17678,0.79913 -0.32523,0.58711 -0.83751,0.91677 -1.47322,0.94803 -0.2145,0.0106 -0.47465,-0.007 -0.57812,-0.0389 z M 108.84,41.31 l 0,-2.61 -0.18,0 -0.18,0 0,-3.16522 0,-3.16523 3.00094,-2.99977 c 2.34371,-2.34281 3.0138,-3.04577 3.05967,-3.20978 0.0323,-0.1155 0.0589,-0.80582 0.059,-1.53404 l 6e-4,-1.32404 0.32021,-0.10094 c 0.73408,-0.2314 1.42635,-0.95175 1.67527,-1.74322 0.13209,-0.42001 0.13452,-0.48372 0.13452,-3.51776 0,-3.02247 -0.003,-3.09923 -0.13284,-3.51222 -0.45213,-1.43698 -1.98528,-2.22112 -3.45511,-1.76714 -0.77817,0.24036 -1.48175,0.94549 -1.72311,1.72694 -0.11248,0.3633 -0.1192,0.56403 -0.1192,3.55242 0,3.00347 0.006,3.18757 0.12064,3.55795 0.23632,0.76513 0.9587,1.49457 1.69406,1.71064 l 0.34513,0.10141 0,1.22922 0,1.22923 -3.06,3.06213 -3.06,3.06214 0,3.40364 0,3.40364 -0.18,0 -0.18,0 0,2.61 0,2.61 0.93,0 0.93,0 0,-2.61 z m 4.70188,-21.63176 c -0.52925,-0.16347 -1.08165,-0.73885 -1.22774,-1.2788 -0.20866,-0.77123 0.20082,-1.61853 0.98253,-2.03303 0.36122,-0.19154 1.10544,-0.19154 1.46666,0 0.37646,0.19962 0.63211,0.44743 0.82989,0.80446 0.15438,0.2787 0.17678,0.37995 0.17678,0.79913 0,0.41919 -0.0224,0.52043 -0.17678,0.79913 -0.32523,0.58711 -0.83751,0.91677 -1.47322,0.94803 -0.2145,0.0106 -0.47465,-0.007 -0.57812,-0.0389 z M 111.72,41.31 l 0,-2.61 -0.18,0 -0.18,0 0,-2.35512 0,-2.35513 5.38519,-5.38493 5.38518,-5.38494 0.20942,0.0601 c 0.35014,0.10042 1.09016,0.0716 1.51264,-0.0589 0.79632,-0.24596 1.48492,-0.94257 1.74304,-1.76331 0.13209,-0.42001 0.13453,-0.48372 0.13453,-3.51776 0,-3.02247 -0.003,-3.09922 -0.13285,-3.51222 -0.45212,-1.43698 -1.98528,-2.22112 -3.4551,-1.76713 -0.77818,0.24035 -1.48175,0.94549 -1.72312,1.72693 -0.11221,0.3633 -0.11893,0.56403 -0.11893,3.55242 0,3.62901 -10e-4,3.61919 0.51674,4.32273 l 0.27546,0.37418 -5.4361,5.43732 -5.4361,5.43732 0,2.59423 0,2.59422 -0.18,0 -0.18,0 0,2.61 0,2.61 0.93,0 0.93,0 0,-2.61 z m 10.82188,-21.63176 c -0.52925,-0.16347 -1.08165,-0.73885 -1.22774,-1.2788 -0.20866,-0.77123 0.20082,-1.61853 0.98253,-2.03303 0.36122,-0.19154 1.10544,-0.19154 1.46666,0 0.37646,0.19962 0.63211,0.44743 0.82989,0.80446 0.15438,0.2787 0.17678,0.37995 0.17678,0.79913 0,0.41919 -0.0224,0.52043 -0.17678,0.79913 -0.32523,0.58711 -0.83751,0.91677 -1.47322,0.94803 -0.2145,0.0106 -0.47465,-0.007 -0.57812,-0.0389 z M 114.48,41.31 l 0,-2.61 -0.93,0 -0.93,0 0,2.61 0,2.61 0.93,0 0.93,0 0,-2.61 z m 2.82,0 0,-2.61 -0.93,0 -0.93,0 0,2.61 0,2.61 0.93,0 0.93,0 0,-2.61 z m 2.88,0 0,-2.61 -0.18,0 -0.18,0 0,-2.08512 0,-2.08512 5.65518,-5.65494 5.65518,-5.65494 0.20942,0.0601 c 0.35015,0.10042 1.09016,0.0716 1.51265,-0.0589 0.79632,-0.24596 1.48492,-0.94257 1.74304,-1.76331 0.13209,-0.42001 0.13453,-0.48372 0.13453,-3.51776 0,-3.02247 -0.003,-3.09923 -0.13285,-3.51222 -0.45212,-1.43698 -1.98528,-2.22112 -3.4551,-1.76714 -0.77818,0.24036 -1.48175,0.94549 -1.72312,1.72694 -0.11221,0.3633 -0.11893,0.56403 -0.11893,3.55242 0,3.62902 -0.001,3.61919 0.51675,4.32274 l 0.27547,0.37419 -5.70611,5.70728 -5.70611,5.70727 0,2.32426 0,2.32426 -0.18,0 -0.18,0 0,2.61 0,2.61 0.93,0 0.93,0 0,-2.61 z m 11.36188,-21.63176 c -0.52925,-0.16347 -1.08165,-0.73885 -1.22774,-1.2788 -0.20866,-0.77123 0.20082,-1.61853 0.98253,-2.03303 0.36122,-0.19154 1.10544,-0.19154 1.46666,0 0.37646,0.19962 0.63211,0.44743 0.82989,0.80446 0.15438,0.2787 0.17678,0.37995 0.17678,0.79913 0,0.41919 -0.0224,0.52043 -0.17678,0.79913 -0.32523,0.58711 -0.83751,0.91677 -1.47322,0.94803 -0.2145,0.0106 -0.47465,-0.007 -0.57812,-0.0389 z M 122.94,41.31 l 0,-2.61 -0.18,0 -0.18,0 0,-1.66484 0,-1.66484 4.12484,-4.12516 4.12484,-4.12516 2.79016,-3.6e-4 c 1.63389,-1.8e-4 2.87718,-0.0247 3.00016,-0.059 0.16091,-0.045 0.6377,-0.4867 2.03963,-1.88966 l 1.82963,-1.83097 0.48905,0 c 1.23585,0 2.25593,-0.73363 2.61716,-1.88224 0.13209,-0.42001 0.13453,-0.48372 0.13453,-3.51776 0,-3.02247 -0.003,-3.09922 -0.13285,-3.51222 -0.45212,-1.43698 -1.98528,-2.22112 -3.4551,-1.76714 -0.77818,0.24036 -1.48175,0.94549 -1.72312,1.72694 -0.11221,0.3633 -0.11893,0.56403 -0.11893,3.55242 0,3.00347 0.006,3.18757 0.12064,3.55795 0.129,0.41763 0.54731,1.04587 0.8118,1.21916 l 0.15684,0.10277 -1.57922,1.58006 -1.57921,1.58006 -2.93997,0 -2.93997,0 -4.45546,4.45545 -4.45545,4.45545 0,1.90455 0,1.90455 -0.18,0 -0.18,0 0,2.61 0,2.61 0.93,0 0.93,0 0,-2.61 z m 17.60188,-21.63176 c -0.52925,-0.16347 -1.08165,-0.73885 -1.22774,-1.2788 -0.20866,-0.77123 0.20082,-1.61853 0.98253,-2.03303 0.36122,-0.19154 1.10544,-0.19154 1.46666,0 0.37646,0.19962 0.63211,0.44743 0.82989,0.80446 0.15438,0.2787 0.17678,0.37995 0.17678,0.79913 0,0.41919 -0.0224,0.52043 -0.17678,0.79913 -0.32523,0.58711 -0.83751,0.91677 -1.47322,0.94803 -0.2145,0.0106 -0.47465,-0.007 -0.57812,-0.0389 z M 125.82,41.31 l 0,-2.61 -0.18,0 -0.18,0 0,-1.3048 0,-1.3048 3.3748,-3.3752 3.3748,-3.3752 5.2506,0 c 3.32504,0 5.3274,-0.022 5.46005,-0.0601 0.16204,-0.0465 0.88854,-0.73905 3.20986,-3.06004 l 3.00041,-2.99997 0.20934,0.06 c 0.35008,0.1004 1.09012,0.0716 1.51257,-0.0589 0.79632,-0.24596 1.48492,-0.94256 1.74304,-1.7633 0.13209,-0.42001 0.13453,-0.48372 0.13453,-3.51776 0,-3.02248 -0.003,-3.09923 -0.13285,-3.51223 -0.45212,-1.43697 -1.98528,-2.22111 -3.4551,-1.76713 -0.77818,0.24035 -1.48175,0.94549 -1.72312,1.72693 -0.11221,0.3633 -0.11893,0.56403 -0.11893,3.55242 0,3.6291 -0.001,3.61917 0.51683,4.32284 l 0.27554,0.37431 -2.78094,2.78142 -2.78094,2.78143 -5.3997,0 -5.3997,0 -3.70555,3.70554 -3.70554,3.70555 0,1.54445 0,1.54446 -0.18,0 -0.18,0 0,2.61 0,2.61 0.93,0 0.93,0 0,-2.61 z m 23.72188,-21.63176 c -0.52925,-0.16347 -1.08165,-0.73885 -1.22774,-1.2788 -0.20866,-0.77123 0.20082,-1.61853 0.98253,-2.03303 0.36122,-0.19154 1.10544,-0.19154 1.46666,0 0.37646,0.19962 0.63211,0.44743 0.82989,0.80446 0.15438,0.2787 0.17678,0.37995 0.17678,0.79913 0,0.41919 -0.0224,0.52043 -0.17678,0.79913 -0.32523,0.58711 -0.83751,0.91677 -1.47322,0.94803 -0.2145,0.0106 -0.47465,-0.007 -0.57812,-0.0389 z M 128.64,41.31 l 0,-2.61 -0.18,0 -0.18,0 0,-0.91472 0,-0.91473 2.41472,-2.41527 2.41472,-2.41528 7.95068,0 c 5.1296,0 8.02502,-0.0213 8.16022,-0.0601 0.16375,-0.047 1.16045,-1.01093 4.55981,-4.41005 l 4.35026,-4.34996 0.2094,0.06 c 0.35012,0.10041 1.09015,0.0716 1.51262,-0.0589 0.79632,-0.24596 1.48492,-0.94257 1.74304,-1.76331 0.13209,-0.42001 0.13453,-0.48372 0.13453,-3.51776 0,-3.03403 -0.002,-3.09774 -0.13453,-3.51775 -0.4502,-1.43152 -1.98588,-2.21488 -3.45342,-1.7616 -0.77818,0.24035 -1.48175,0.94549 -1.72312,1.72693 -0.11221,0.36331 -0.11893,0.56404 -0.11893,3.55243 0,3.62914 -0.001,3.61916 0.51686,4.32289 l 0.27558,0.37435 -4.13106,4.13138 -4.13106,4.13138 -8.09943,0 -8.09943,0 -2.74573,2.74573 -2.74573,2.74573 0,1.15427 0,1.15427 -0.18,0 -0.18,0 0,2.61 0,2.61 0.93,0 0.93,0 0,-2.61 z m 29.90188,-21.63176 c -0.52925,-0.16347 -1.08165,-0.73885 -1.22774,-1.2788 -0.20866,-0.77123 0.20082,-1.61853 0.98253,-2.03303 0.36122,-0.19154 1.10544,-0.19154 1.46666,0 0.37646,0.19962 0.63211,0.44743 0.82989,0.80446 0.15438,0.2787 0.17678,0.37995 0.17678,0.79913 0,0.41919 -0.0224,0.52043 -0.17678,0.79913 -0.32523,0.58711 -0.83751,0.91677 -1.47322,0.94803 -0.2145,0.0106 -0.47465,-0.007 -0.57812,-0.0389 z"
       id="path4151" />
    <ellipse
       style="fill:#ffffff;fill-opacity:1;stroke:none;stroke-width:15;stroke-miterlimit:4;stroke-dasharray:none"
       id="path4155"
       cx="20.869705"
       cy="19.372894"
       rx="1.1154661"
       ry="1.1059322" />
    <ellipse
       style="fill:#ffffff;fill-opacity:1;stroke:none;stroke-width:15;stroke-miterlimit:4;stroke-dasharray:none"
       id="path4155-6"
       cx="29.879242"
       cy="19.353821"
       rx="1.1154661"
       ry="1.1059322" />
    <ellipse
       style="fill:#ffffff;fill-opacity:1;stroke:none;stroke-width:15;stroke-miterlimit:4;stroke-dasharray:none"
       id="path4155-8"
       cx="51.10083"
       cy="17.947418"
       rx="1.1154661"
       ry="1.1059322" />
    <ellipse
       style="fill:#ffffff;fill-opacity:1;stroke:none;stroke-width:15;stroke-miterlimit:4;stroke-dasharray:none"
       id="path4155-0"
       cx="60.06662"
       cy="17.92749"
       rx="1.1154661"
       ry="1.1059322" />
    <ellipse
       style="fill:#ffffff;fill-opacity:1;stroke:none;stroke-width:15;stroke-miterlimit:4;stroke-dasharray:none"
       id="path4155-4"
       cx="69.044495"
       cy="17.952332"
       rx="1.1154661"
       ry="1.1059322" />
    <ellipse
       style="fill:#ffffff;fill-opacity:1;stroke:none;stroke-width:15;stroke-miterlimit:4;stroke-dasharray:none"
       id="path4155-09"
       cx="78.073105"
       cy="17.990479"
       rx="1.1154661"
       ry="1.1059322" />
    <ellipse
       style="fill:#ffffff;fill-opacity:1;stroke:none;stroke-width:15;stroke-miterlimit:4;stroke-dasharray:none"
       id="path4155-3"
       cx="87.044495"
       cy="17.961853"
       rx="1.1154661"
       ry="1.1059322" />
    <ellipse
       style="fill:#ffffff;fill-opacity:1;stroke:none;stroke-width:15;stroke-miterlimit:4;stroke-dasharray:none"
       id="path4155-7"
       cx="96.025421"
       cy="17.990479"
       rx="1.1154661"
       ry="1.1059322" />
    <ellipse
       style="fill:#ffffff;fill-opacity:1;stroke:none;stroke-width:15;stroke-miterlimit:4;stroke-dasharray:none"
       id="path4155-02"
       cx="105.03233"
       cy="18.001648"
       rx="1.1154661"
       ry="1.1059322" />
    <ellipse
       style="fill:#ffffff;fill-opacity:1;stroke:none;stroke-width:15;stroke-miterlimit:4;stroke-dasharray:none"
       id="path4155-35"
       cx="114.07265"
       cy="17.954468"
       rx="1.1154661"
       ry="1.1059322" />
    <ellipse
       style="fill:#ffffff;fill-opacity:1;stroke:none;stroke-width:15;stroke-miterlimit:4;stroke-dasharray:none"
       id="path4155-1"
       cx="123.04449"
       cy="18"
       rx="1.1154661"
       ry="1.1059322" />
    <ellipse
       style="fill:#ffffff;fill-opacity:1;stroke:none;stroke-width:15;stroke-miterlimit:4;stroke-dasharray:none"
       id="path4155-13"
       cx="132.03516"
       cy="17.972656"
       rx="1.1154661"
       ry="1.1059322" />
    <ellipse
       style="fill:#ffffff;fill-opacity:1;stroke:none;stroke-width:15;stroke-miterlimit:4;stroke-dasharray:none"
       id="path4155-86"
       cx="141.06227"
       cy="17.98584"
       rx="1.1154661"
       ry="1.1059322" />
    <ellipse
       style="fill:#ffffff;fill-opacity:1;stroke:none;stroke-width:15;stroke-miterlimit:4;stroke-dasharray:none"
       id="path4155-42"
       cx="150.02817"
       cy="17.969269"
       rx="1.1154661"
       ry="1.1059322" />
    <ellipse
       style="fill:#ffffff;fill-opacity:1;stroke:none;stroke-width:15;stroke-miterlimit:4;stroke-dasharray:none"
       id="path4155-9"
       cx="158.99463"
       cy="17.996216"
       rx="1.1154661"
       ry="1.1059322" />
    <ellipse
       style="fill:#ffffff;fill-opacity:1;stroke:none;stroke-width:15;stroke-miterlimit:4;stroke-dasharray:none"
       id="path4155-49"
       cx="169.38281"
       cy="32.382812"
       rx="1.1154661"
       ry="1.1059322" />
    <ellipse
       style="fill:#ffffff;fill-opacity:1;stroke:none;stroke-width:15;stroke-miterlimit:4;stroke-dasharray:none"
       id="path4155-65"
       cx="169.35207"
       cy="41.370087"
       rx="1.1154661"
       ry="1.1059322" />
    <ellipse
       style="fill:#ffffff;fill-opacity:1;stroke:none;stroke-width:15;stroke-miterlimit:4;stroke-dasharray:none"
       id="path4155-31"
       cx="169.32999"
       cy="50.385681"
       rx="1.1154661"
       ry="1.1059322" />
    <ellipse
       style="fill:#ffffff;fill-opacity:1;stroke:none;stroke-width:15;stroke-miterlimit:4;stroke-dasharray:none"
       id="path4155-2"
       cx="169.39844"
       cy="59.335938"
       rx="1.1154661"
       ry="1.1059322" />
    <ellipse
       style="fill:#ffffff;fill-opacity:1;stroke:none;stroke-width:15;stroke-miterlimit:4;stroke-dasharray:none"
       id="path4155-10"
       cx="169.39626"
       cy="68.394821"
       rx="1.1154661"
       ry="1.1059322" />
    <ellipse
       style="fill:#ffffff;fill-opacity:1;stroke:none;stroke-width:15;stroke-miterlimit:4;stroke-dasharray:none"
       id="path4155-36"
       cx="169.36719"
       cy="77.367188"
       rx="1.1154661"
       ry="1.1059322" />
    <ellipse
       style="fill:#ffffff;fill-opacity:1;stroke:none;stroke-width:15;stroke-miterlimit:4;stroke-dasharray:none"
       id="path4155-91"
       cx="169.33594"
       cy="86.332031"
       rx="1.1154661"
       ry="1.1059322" />
    <ellipse
       style="fill:#ffffff;fill-opacity:1;stroke:none;stroke-width:15;stroke-miterlimit:4;stroke-dasharray:none"
       id="path4155-85"
       cx="169.34656"
       cy="95.342224"
       rx="1.1154661"
       ry="1.1059322" />
    <ellipse
       style="fill:#ffffff;fill-opacity:1;stroke:none;stroke-width:15;stroke-miterlimit:4;stroke-dasharray:none"
       id="path4155-38"
       cx="169.32031"
       cy="119.23439"
       rx="1.1154661"
       ry="1.1059322" />
    <ellipse
       style="fill:#ffffff;fill-opacity:1;stroke:none;stroke-width:15;stroke-miterlimit:4;stroke-dasharray:none"
       id="path4155-90"
       cx="160.35156"
       cy="119.21875"
       rx="1.1154661"
       ry="1.1059322" />
    <ellipse
       style="fill:#ffffff;fill-opacity:1;stroke:none;stroke-width:15;stroke-miterlimit:4;stroke-dasharray:none"
       id="path4155-83"
       cx="151.36505"
       cy="119.20708"
       rx="1.1154661"
       ry="1.1059322" />
    <ellipse
       style="fill:#ffffff;fill-opacity:1;stroke:none;stroke-width:15;stroke-miterlimit:4;stroke-dasharray:none"
       id="path4155-354"
       cx="142.35938"
       cy="119.21095"
       rx="1.1154661"
       ry="1.1059322" />
    <ellipse
       style="fill:#ffffff;fill-opacity:1;stroke:none;stroke-width:15;stroke-miterlimit:4;stroke-dasharray:none"
       id="path4155-61"
       cx="133.375"
       cy="119.13283"
       rx="1.1154661"
       ry="1.1059322" />
    <ellipse
       style="fill:#ffffff;fill-opacity:1;stroke:none;stroke-width:15;stroke-miterlimit:4;stroke-dasharray:none"
       id="path4155-44"
       cx="124.34375"
       cy="119.17969"
       rx="1.1154661"
       ry="1.1059322" />
    <ellipse
       style="fill:#ffffff;fill-opacity:1;stroke:none;stroke-width:15;stroke-miterlimit:4;stroke-dasharray:none"
       id="path4155-77"
       cx="115.39099"
       cy="119.18497"
       rx="1.1154661"
       ry="1.1059322" />
    <ellipse
       style="fill:#ffffff;fill-opacity:1;stroke:none;stroke-width:15;stroke-miterlimit:4;stroke-dasharray:none"
       id="path4155-33"
       cx="106.35939"
       cy="119.17189"
       rx="1.1154661"
       ry="1.1059322" />
    <ellipse
       style="fill:#ffffff;fill-opacity:1;stroke:none;stroke-width:15;stroke-miterlimit:4;stroke-dasharray:none"
       id="path4155-610"
       cx="97.367188"
       cy="119.14844"
       rx="1.1154661"
       ry="1.1059322" />
    <ellipse
       style="fill:#ffffff;fill-opacity:1;stroke:none;stroke-width:15;stroke-miterlimit:4;stroke-dasharray:none"
       id="path4155-23"
       cx="88.421875"
       cy="119.66406"
       rx="1.1154661"
       ry="1.1059322" />
    <ellipse
       style="fill:#ffffff;fill-opacity:1;stroke:none;stroke-width:15;stroke-miterlimit:4;stroke-dasharray:none"
       id="path4155-25"
       cx="79.375"
       cy="119.67189"
       rx="1.1154661"
       ry="1.1059322" />
    <ellipse
       style="fill:#ffffff;fill-opacity:1;stroke:none;stroke-width:15;stroke-miterlimit:4;stroke-dasharray:none"
       id="path4155-5"
       cx="70.367188"
       cy="119.71095"
       rx="1.1154661"
       ry="1.1059322" />
    <ellipse
       style="fill:#ffffff;fill-opacity:1;stroke:none;stroke-width:15;stroke-miterlimit:4;stroke-dasharray:none"
       id="path4155-81"
       cx="29.89183"
       cy="42.309204"
       rx="1.1154661"
       ry="1.1059322" />
    <ellipse
       style="fill:#ffffff;fill-opacity:1;stroke:none;stroke-width:15;stroke-miterlimit:4;stroke-dasharray:none"
       id="path4155-41"
       cx="20.859375"
       cy="42.257812"
       rx="1.1154661"
       ry="1.1059322" />
    <path
       id="path4388"
       style="fill:#ffffff"
       d="m 20.76,138.37736 c -0.1485,-0.0121 -0.594813,-0.0738 -0.991807,-0.13728 C 15.048422,137.48572 10.997534,134.49802 8.9076564,130.23 8.1982518,128.78123 7.8339096,127.65266 7.5426438,126.00181 L 7.41,125.25 l 0,-53.52 0,-53.52 0.1326438,-0.751807 C 7.8339096,15.80734 8.1982518,14.678771 8.9076564,13.23 10.349671,10.285066 12.72241,7.9321986 15.69,6.5044578 17.049659,5.8503105 18.208327,5.4831492 19.798193,5.2026437 L 20.55,5.07 l 75.03,0 75.03,0 0.75181,0.1326437 c 1.65085,0.2912656 2.77942,0.655608 4.22819,1.3650127 2.94493,1.4420148 5.2978,3.8147536 6.72554,6.7823436 0.65415,1.359659 1.02131,2.518327 1.30182,4.108193 L 183.75,18.21 l 0,53.52 0,53.52 -0.13264,0.75181 c -0.28051,1.58986 -0.64767,2.74853 -1.30182,4.10819 -1.42774,2.96759 -3.78061,5.34033 -6.72554,6.78235 -1.43041,0.70041 -2.53156,1.05845 -4.19672,1.36457 l -0.72328,0.13297 -74.82,0.005 c -41.151,0.003 -74.9415,-0.005 -75.09,-0.0172 z M 191.52,0 0,0 l 0,144 191.52,0 z" />
  </g>
</svg>
